<svg width="24" height="24" viewBox="0 0 24 24" fill="none" xmlns="http://www.w3.org/2000/svg">
<path d="M12.1667 6C8 6 4.44167 8.59167 3 12.25C4.44167 15.9083 8 18.5 12.1667 18.5C16.3333 18.5 19.8917 15.9083 21.3333 12.25C19.8917 8.59167 16.3333 6 12.1667 6ZM12.1667 16.4167C9.86667 16.4167 8 14.55 8 12.25C8 9.95 9.86667 8.08333 12.1667 8.08333C14.4667 8.08333 16.3333 9.95 16.3333 12.25C16.3333 14.55 14.4667 16.4167 12.1667 16.4167ZM12.1667 9.75C10.7833 9.75 9.66667 10.8667 9.66667 12.25C9.66667 13.6333 10.7833 14.75 12.1667 14.75C13.55 14.75 14.6667 13.6333 14.6667 12.25C14.6667 10.8667 13.55 9.75 12.1667 9.75Z" fill="#515E66"/>
</svg>
